<?xml version="1.0" encoding="iso-8859-1"?>
<!-- Generator: Adobe Illustrator 16.0.0, SVG Export Plug-In . SVG Version: 6.00 Build 0)  -->
<!DOCTYPE svg PUBLIC "-//W3C//DTD SVG 1.1//EN" "http://www.w3.org/Graphics/SVG/1.1/DTD/svg11.dtd">
<svg version="1.1" id="Capa_1" xmlns="http://www.w3.org/2000/svg" xmlns:xlink="http://www.w3.org/1999/xlink" x="0px" y="0px"
	 width="611.999px" height="611.999px" viewBox="0 0 611.999 611.999" style="enable-background:new 0 0 611.999 611.999;"
	 xml:space="preserve">
<g>
	<g>
		<path d="M370.472,202.689c-20.206-8.599-41.51-12.898-64.066-12.898h-0.603c-65.271,0-120.263,35.164-159.117,101.642
			c-16.189,27.72-28.272,57.431-35.793,89.001c-7.521,31.635-11.428,60.51-11.428,86.625c0,57.496,18.346,91.762,48.729,91.762
			h316.424c30.076,0,48.575-34.266,48.723-91.119c0.154-55.955-16.093-125.062-50.833-180.504
			C439.202,249.98,411.025,219.95,370.472,202.689z M479.352,467.702c-0.187,38.18-9.921,59.547-14.733,57.752H148.194
			c-5.416,1.475-15.644-18.994-15.644-58.395c0-23.42,3.503-49.602,10.53-78.156c7.11-28.939,18.23-55.889,32.784-80.914
			c12.513-21.561,26.918-39.271,48.125-56.597c21.503-17.518,50.23-28.234,81.814-28.234h0.603
			c31.578,0,60.395,10.909,81.808,28.555c21.599,17.839,35.915,35.421,48.729,57.174c14.861,25.152,25.532,52.297,32.487,81.172
			C476.31,418.678,479.467,444.538,479.352,467.702z"/>
		<path d="M306.406,297.721c-27.675,0-51.135,9.625-70.687,29.197c-19.552,19.57-29.177,42.992-29.177,70.391
			c0,27.336,9.625,51.143,29.177,70.648c19.552,19.572,43.012,29.197,70.687,29.197c27.369,0,50.828-9.625,70.38-29.197
			c19.552-19.506,29.479-43.312,29.479-70.648c0-27.398-9.927-50.564-29.479-70.07C357.233,307.667,333.774,297.721,306.406,297.721
			z M353.326,444.538c-12.859,12.961-28.574,19.506-46.92,19.506c-18.352,0-34.368-6.545-47.227-19.506
			c-13.007-13.154-19.25-28.875-19.25-47.229c0-18.352,6.32-34.008,19.25-46.906c12.936-12.961,28.875-19.57,47.227-19.57
			c18.346,0,33.984,6.609,46.92,19.57c12.936,12.898,19.552,28.555,19.552,46.906C372.878,415.663,366.333,431.383,353.326,444.538z
			"/>
		<path d="M584.028,133.516c-18.352-18.93-42.492-34.073-72.792-45.431C450.7,65.434,376.786,53.178,298.886,53.178
			c-60.761,0-114.912,6.609-162.421,19.571c-47.241,12.898-82.347,31.378-105.576,54.735
			c-20.688,20.854-30.627,43.955-30.082,69.814c0.051,2.374-0.539,8.727-0.597,11.101c-0.244,9.946-0.314,17.774,0,23.742
			c0.289,5.775,1.501,12.962,4.209,21.688c2.708,8.727,7.013,15.529,12.333,21.047c10.928,11.358,27.367,17.133,49.326,17.133
			c6.314,0,11.146-0.128,14.739-0.577c44.237-5.839,65.053-17.71,73.389-37.025c6.103-14.053,6.917-24.063,6.917-42.415v-6.866
			c0-2.438,1.207-4.813,3.613-7.251c8.721-8.727,26.2-15.464,52.335-21.047c26.2-5.583,55.646-8.406,88.128-8.406
			c28.575,0,54.44,2.118,77.605,5.968c23.158,3.914,40.548,8.855,52.033,14.438c11.371,5.583,17.447,10.844,17.447,16.299v5.069
			c0,18.994-0.077,29.197,6.013,43.634c2.939,6.93,7.213,12.962,12.937,17.454c11.12,8.727,31.577,16.876,61.357,20.149
			c27.971,3.08,49.113-2.31,62.563-15.978c10.915-11.037,16.145-31.25,16.542-43.57c0.205-6.353,0.302-14.117,0.302-24.063v-9.946
			C611.999,173.813,602.374,152.445,584.028,133.516z M578.612,208.4c0,23.165-1.438,37.667-7.219,43.634
			c-4.447,4.556-12.937,6.93-24.666,6.93c-4.511,0-8.111-0.385-10.523-0.642c-24.961-2.438-40.766-7.7-46.926-16.234
			c-3.17-4.363-3.606-14.694-3.606-31.25v-5.711c0-18.352-12.705-33.56-30.377-43.313c-17.216-9.497-44.539-16.748-66.478-20.148
			c-10.845-1.733-22.568-3.208-34.889-4.235c-12.346-1.091-22.26-1.796-29.177-2.117s-13.231-0.321-19.552-0.321
			c-11.127,0-22.549,0.449-34.292,1.219c-11.717,0.77-26.456,2.182-44.513,4.492c-35.78,4.62-69.019,16.427-85.722,33.688
			c-9.465,9.817-12.936,20.148-12.936,30.736v6.866c0,12.384-0.071,15.657-2.105,23.806c-0.975,3.85-2.143,6.866-4.209,8.727
			c-6.353,5.646-18.987,11.55-44.218,13.796c-18.987,1.668-30.948,0-36.39-6.288c-4.184-4.877-6.218-12.962-6.923-21.368
			c-0.199-2.438-0.295-8.406-0.295-10.523v-11.101c0-2.438,0.674-9.369,0.597-11.743c-0.526-16.876,6.019-32.212,20.155-46.329
			c20.148-20.148,52.072-35.677,95.648-47.228c43.647-11.614,93.242-17.454,148.888-17.454c78.503,0,144.032,10.652,196.713,31.571
			c20.707,8.277,38.142,16.94,55.043,30.095c17.088,13.282,27.971,30.993,27.971,49.922V208.4z"/>
	</g>
</g>
<g>
</g>
<g>
</g>
<g>
</g>
<g>
</g>
<g>
</g>
<g>
</g>
<g>
</g>
<g>
</g>
<g>
</g>
<g>
</g>
<g>
</g>
<g>
</g>
<g>
</g>
<g>
</g>
<g>
</g>
</svg>
